<svg xmlns="http://www.w3.org/2000/svg" viewBox="0 0 640 200" role="img" aria-labelledby="title3 desc3">
  <title id="title3">PinkCalzados - Logo 3</title>
  <desc id="desc3">Monograma PC estilizado formando una huella, con palabra PinkCalzados a la derecha.</desc>
  <defs>
    <linearGradient id="g2" x1="0" y1="0" x2="1" y2="0">
      <stop offset="0%" stop-color="#64B5F6"/>
      <stop offset="100%" stop-color="#64B5F6"/>
    </linearGradient>
  </defs>
  <!-- Mark -->
  <g transform="translate(80,100)">
    <path d="M0 -48 A48 48 0 1 0 0 48 L0 18 A18 18 0 1 1 0 -18 Z" fill="url(#g2)"/>
    <path d="M36 -8 C36 -22, 24 -28, 10 -28 L10 -12 C17 -12, 20 -9, 20 -4 C20 1, 17 4, 10 4 L10 20 C24 20, 36 14, 36 0 Z" fill="#FFFFFF" opacity=".9"/>
    <circle cx="56" cy="-44" r="8" fill="#64B5F6"/>
    <circle cx="72" cy="-30" r="7" fill="#64B5F6"/>
    <circle cx="78" cy="-12" r="6" fill="#64B5F6"/>
    <circle cx="70" cy="6" r="7" fill="#64B5F6"/>
  </g>
  <!-- Wordmark -->
  <g transform="translate(220,118)">
    <text x="0" y="0" font-family="Poppins, Inter, Arial, sans-serif" font-size="56" font-weight="800" fill="#64B5F6">
      Pink<tspan fill="#64B5F6">Calzados</tspan>
    </text>
    <rect x="2" y="12" width="280" height="6" rx="3" fill="#64B5F6" opacity=".6"/>
  </g>
</svg>